<svg width="198" height="221" viewBox="0 0 198 221" fill="none" xmlns="http://www.w3.org/2000/svg">
<path d="M99.7053 44.6352V8.31113M37.0594 145.711L95.1232 48.1247C97.1773 44.6724 102.186 44.7003 104.201 48.1753L160.772 145.711M6.52625 164.663L36.883 146.954C37.6881 146.485 38.6035 146.237 39.5356 146.237H158.822C159.754 146.237 160.67 146.485 161.475 146.954L191.832 164.663M99.7053 214.674L160.155 145.365C160.563 144.897 160.885 144.361 161.106 143.782L191.305 64.6398M185.459 55.1639L100.53 41.6082C99.9836 41.521 99.4271 41.5205 98.8807 41.6066L12.8435 55.1639M99.7055 215.727L39.2632 146.948C38.8504 146.478 38.5245 145.938 38.301 145.354L6 60.9548M6.52625 162.048V61.9126C6.52625 60.0188 7.54342 58.271 9.18997 57.3354L96.5708 7.68723C98.1875 6.76865 100.169 6.77108 101.783 7.69361L188.653 57.3332C190.293 58.2705 191.305 60.0148 191.305 61.9039V162.057C191.305 163.987 190.249 165.762 188.552 166.683L101.683 213.841C100.121 214.689 98.2357 214.691 96.6712 213.847L9.29007 166.681C7.58752 165.762 6.52625 163.983 6.52625 162.048Z" stroke="#7911E2" stroke-width="12.291"/>
</svg>
